# xmcd
#
# Track frame offsets: 
#        150
#        22602
#        44310
#        60170
#        81220
#        107775
#        122632
#        144325
#        159330
#        180247
#        196540
#
# Disc length: 2915 seconds
#
# Revision: 3
# Processed by: cddbd v1.5.1PL0 Copyright (c) Steve Scherf et al.
# Submitted via: ExactAudioCopy v0.95a5
#
DISCID=730b610b
DTITLE=Andrew Cash - Time And Place
DYEAR=1988
DGENRE=blues
TTITLE0=Smile Me Down
TTITLE1=Midnight Gone
TTITLE2=Time And Place
TTITLE3=Flower
TTITLE4=Places
TTITLE5=Do Not Adjust Your Set
TTITLE6=Trail Of Tears
TTITLE7=It's Not Forever
TTITLE8=When Is It Gonna Come
TTITLE9=Morning Train
TTITLE10=When The Wind Blows
EXTD=MillenniumMusicProjectFormat
EXTT0=
EXTT1=
EXTT2=
EXTT3=
EXTT4=
EXTT5=
EXTT6=
EXTT7=
EXTT8=
EXTT9=
EXTT10=
PLAYORDER=
